<svg xmlns="http://www.w3.org/2000/svg" width="12.696" height="24.88" viewBox="0 0 12.696 24.88">
  <defs>
    <style>
      .cls-1 {
        fill: #999;
      }
    </style>
  </defs>
  <path id="路径_244" data-name="路径 244" class="cls-1" d="M206.2,10.152,215.064.51a1.5,1.5,0,0,1,2.177,0,1.5,1.5,0,0,1,0,2.177l-8.865,9.641c-.154.154-.154.311,0,.311l9.019,9.641a1.5,1.5,0,0,1,0,2.175,2.065,2.065,0,0,1-1.09.468,1.411,1.411,0,0,1-1.09-.468l-8.863-9.639a3.011,3.011,0,0,1-.157-4.665Z" transform="translate(-205.165 -0.043)"/>
</svg>
