<svg xmlns="http://www.w3.org/2000/svg" width="12.696" height="24.88" viewBox="0 0 12.696 24.88">
  <defs>
    <style>
      .cls-1 {
        fill: #999;
      }
    </style>
  </defs>
  <path id="路径_245" data-name="路径 245" class="cls-1" d="M216.829,10.152,207.961.51a1.5,1.5,0,0,0-2.177,0,1.5,1.5,0,0,0,0,2.177l8.865,9.641c.154.154.154.311,0,.311l-9.019,9.641a1.5,1.5,0,0,0,0,2.175,2.065,2.065,0,0,0,1.09.468,1.411,1.411,0,0,0,1.09-.468l8.863-9.639a3.011,3.011,0,0,0,.157-4.665Z" transform="translate(-205.165 -0.043)"/>
</svg>
